<?xml version="1.0" encoding="utf-8"?>

<!-- Generator: Adobe Illustrator 26.2.1, SVG Export Plug-In . SVG Version: 6.00 Build 0) -->

<svg version="1.1" id="Layer_1" xmlns="http://www.w3.org/2000/svg" xmlns:xlink="http://www.w3.org/1999/xlink" x="0px" y="0px"

viewBox="0 0 496 540" style="enable-background:new 0 0 496 540;" xml:space="preserve">

<style type="text/css">

.st0{fill:#334054;}

.st1{fill:#EEDBB7;}

.st2{fill:none;stroke:#231F20;stroke-width:2;stroke-miterlimit:10;}

.st3{fill:#954236;}

.st4{fill:#EFDBB7;}

.st5{fill:none;stroke:#EB008B;stroke-width:1.6989;stroke-miterlimit:10;}

.st6{fill:#954236;stroke:#EFDBB7;stroke-width:2;stroke-miterlimit:10;}

</style>

<g>

<path class="st0" d="M248.85,452.01c-111.64,0-202.47-90.83-202.47-202.47S137.21,47.08,248.85,47.08s202.47,90.83,202.47,202.47

c0,54.3-21.1,105.24-59.41,143.42C353.7,431.04,302.9,452.01,248.85,452.01z"/>

<g>

<path class="st1" d="M248.85,48.08c111.27,0,201.47,90.2,201.47,201.47c0,111.95-90.48,201.47-201.47,201.47

c-111.27,0-201.47-90.2-201.47-201.47S137.58,48.08,248.85,48.08 M248.85,46.08c-27.47,0-54.11,5.38-79.2,15.99

c-24.23,10.25-45.99,24.92-64.67,43.6c-18.69,18.69-33.36,40.44-43.6,64.67c-10.61,25.09-15.99,51.73-15.99,79.2

c0,27.47,5.38,54.11,15.99,79.2c10.25,24.23,24.92,45.99,43.6,64.67c18.69,18.69,40.44,33.36,64.67,43.6

c25.09,10.61,51.73,15.99,79.2,15.99c27.42,0,54.03-5.35,79.08-15.89c24.24-10.2,46-24.82,64.69-43.44

c38.5-38.37,59.7-89.56,59.7-144.13c0-27.47-5.38-54.11-15.99-79.2c-10.25-24.23-24.92-45.99-43.6-64.67

c-18.69-18.69-40.44-33.36-64.67-43.6C302.96,51.46,276.31,46.08,248.85,46.08L248.85,46.08z"/>

</g>

</g>

<path class="st2" d="M95.26,276.94"/>

<g>

<g>

<path class="st1" d="M87.37,196.64c1.72,0.38,3.3,1.1,4.75,2.16s2.59,2.44,3.44,4.14c1.15-1.3,2.51-2.06,4.1-2.26

c1.58-0.2,3.13-0.14,4.66,0.2l5.86,1.3c0.74,0.16,1.64,0.17,2.7,0.01c1.06-0.15,2.18-0.41,3.36-0.76l-1.65,7.44

c-1.11,0.41-2.18,0.57-3.21,0.49c-1.03-0.08-1.87-0.2-2.54-0.35l-6.09-1.35c-0.59-0.13-1.19-0.16-1.82-0.1

c-0.63,0.07-1.23,0.27-1.79,0.62s-1.08,0.85-1.53,1.5c-0.45,0.66-0.8,1.51-1.03,2.57l-2.26,10.19l16.46,3.65l-1.52,6.85

l-40.54-8.98l3.78-17.05c0.47-2.11,1.23-3.88,2.29-5.33c1.06-1.45,2.28-2.59,3.68-3.43c1.39-0.84,2.87-1.38,4.42-1.63

C84.43,196.29,85.93,196.32,87.37,196.64z M88.51,221.17l2.26-10.19c0.18-0.82,0.19-1.64,0.02-2.45

c-0.17-0.81-0.47-1.56-0.92-2.23c-0.44-0.67-1.01-1.26-1.7-1.76s-1.48-0.85-2.38-1.05c-1.76-0.39-3.33-0.14-4.71,0.74

c-1.38,0.88-2.28,2.22-2.67,4.02l-2.26,10.19L88.51,221.17z"/>

<path class="st1" d="M118.65,153.13c2.78,1.58,5.12,3.4,7.01,5.45c1.9,2.05,3.28,4.25,4.14,6.61c0.87,2.36,1.17,4.83,0.91,7.43

c-0.26,2.59-1.14,5.21-2.64,7.85c-1.5,2.64-3.3,4.71-5.38,6.22c-2.08,1.51-4.36,2.49-6.83,2.95c-2.47,0.46-5.07,0.39-7.79-0.2

c-2.73-0.59-5.48-1.67-8.26-3.26c-2.78-1.58-5.12-3.4-7.01-5.45c-1.89-2.05-3.28-4.25-4.14-6.61c-0.86-2.36-1.19-4.82-0.97-7.39

c0.22-2.57,1.08-5.17,2.59-7.81c1.5-2.64,3.32-4.73,5.43-6.26c2.12-1.53,4.41-2.53,6.88-2.99c2.47-0.46,5.07-0.39,7.79,0.2

C113.11,150.46,115.87,151.55,118.65,153.13z M115.17,159.23c-2.16-1.23-4.24-2.06-6.25-2.49c-2.01-0.43-3.86-0.51-5.56-0.24

c-1.7,0.28-3.23,0.88-4.59,1.81c-1.36,0.93-2.45,2.12-3.28,3.58c-0.83,1.46-1.3,3-1.39,4.63s0.17,3.23,0.81,4.81

c0.64,1.58,1.66,3.13,3.05,4.64c1.4,1.51,3.17,2.88,5.33,4.11c2.16,1.23,4.23,2.05,6.22,2.48s3.84,0.51,5.55,0.26

s3.23-0.83,4.58-1.74c1.35-0.91,2.44-2.1,3.27-3.56c0.83-1.46,1.3-3.01,1.41-4.65c0.11-1.64-0.16-3.27-0.81-4.88

c-0.65-1.61-1.66-3.17-3.04-4.67C119.09,161.82,117.33,160.46,115.17,159.23z"/>

<path class="st1" d="M118.76,122.36l24.65,25.49l14.19-13.72l4.21,4.36l-19.28,18.64l-28.86-29.85L118.76,122.36z"/>

<path class="st1" d="M190.02,98.56c1.49,2.83,2.48,5.62,2.97,8.37s0.47,5.35-0.07,7.8c-0.54,2.45-1.62,4.7-3.23,6.75

c-1.62,2.04-3.77,3.77-6.46,5.19c-2.69,1.41-5.32,2.19-7.88,2.34c-2.56,0.15-5.01-0.25-7.34-1.2c-2.33-0.95-4.48-2.4-6.46-4.37

c-1.98-1.96-3.71-4.36-5.2-7.2c-1.49-2.83-2.48-5.62-2.97-8.37c-0.49-2.75-0.47-5.34,0.07-7.8s1.6-4.7,3.17-6.75

c1.57-2.04,3.7-3.77,6.39-5.19c2.69-1.41,5.34-2.2,7.95-2.35c2.61-0.15,5.08,0.25,7.4,1.2c2.33,0.95,4.48,2.4,6.46,4.37

C186.8,93.33,188.53,95.73,190.02,98.56z M183.81,101.82c-1.15-2.2-2.46-4.02-3.92-5.46c-1.46-1.45-2.98-2.51-4.56-3.2

c-1.58-0.68-3.19-1-4.84-0.95c-1.65,0.05-3.21,0.47-4.7,1.25s-2.71,1.83-3.67,3.15c-0.96,1.32-1.6,2.81-1.91,4.49

c-0.32,1.68-0.29,3.53,0.07,5.55c0.36,2.02,1.12,4.13,2.27,6.33c1.15,2.2,2.45,4.01,3.91,5.44c1.45,1.43,2.96,2.5,4.53,3.21

s3.17,1.05,4.8,1c1.63-0.04,3.18-0.45,4.67-1.23c1.49-0.78,2.72-1.83,3.69-3.16c0.98-1.32,1.63-2.84,1.95-4.55

c0.32-1.71,0.31-3.56-0.04-5.57C185.71,106.12,184.96,104.02,183.81,101.82z"/>

<path class="st1" d="M236.31,68.01l0.18,17.04l18.48-0.2l-0.18-17.04l7.08-0.08l0.44,41.52l-7.08,0.08l-0.2-18.48l-18.48,0.2

l0.2,18.48l-7.02,0.08l-0.44-41.52L236.31,68.01z"/>

<path class="st1" d="M303.16,76.55l2.6,44.11l-7.07-2.11l-0.74-12.81l-14.08-4.21l-7.59,10.32l-7.13-2.13l26.55-35.4L303.16,76.55

z M296.72,84.27l-9.09,12.19l9.95,2.97L296.72,84.27z"/>

<path class="st1" d="M328.18,109.26c-1.57,2.32-2.65,4.53-3.24,6.65c-0.59,2.11-0.8,4.05-0.64,5.8c0.16,1.75,0.65,3.3,1.45,4.65

c0.8,1.34,1.82,2.43,3.04,3.26c1.26,0.85,2.56,1.37,3.92,1.54c1.36,0.17,2.71,0.1,4.06-0.22c1.35-0.32,2.64-0.84,3.87-1.58

c1.23-0.74,2.35-1.61,3.37-2.61l5.96,4.04c-1.69,1.71-3.51,3.13-5.47,4.27s-4,1.9-6.13,2.3c-2.13,0.39-4.28,0.38-6.46-0.04

c-2.18-0.42-4.33-1.34-6.45-2.78c-2.38-1.62-4.27-3.51-5.64-5.68c-1.38-2.17-2.21-4.51-2.49-7.02c-0.28-2.51-0.01-5.17,0.81-7.97

c0.82-2.81,2.22-5.68,4.22-8.63c1.53-2.25,3.36-4.19,5.51-5.83c2.15-1.63,4.45-2.82,6.9-3.55c2.45-0.73,4.98-0.93,7.59-0.61

c2.61,0.32,5.16,1.32,7.64,3.01c2.12,1.44,3.8,3.02,5.04,4.76c1.24,1.73,2.12,3.57,2.65,5.5c0.53,1.93,0.72,3.93,0.57,6

c-0.15,2.07-0.57,4.16-1.27,6.25l-6.01-4.08c0.8-3.03,0.85-5.66,0.16-7.87c-0.7-2.21-2.19-4.1-4.47-5.64

c-1.46-0.99-3.02-1.54-4.68-1.65c-1.66-0.11-3.33,0.11-4.99,0.67c-1.67,0.56-3.26,1.46-4.8,2.69

C330.66,106.11,329.32,107.57,328.18,109.26z"/>

<path class="st1" d="M383.22,128.79l-13.99,11.13c4.16,0.47,8.37,0.96,12.62,1.46c4.25,0.5,8.42,0.97,12.5,1.4l5.71,7.18

l-23.56-2.73c-0.71,2.25-1.44,4.6-2.17,7.05c-0.73,2.45-1.47,4.91-2.21,7.39c-0.74,2.48-1.48,4.93-2.23,7.37

c-0.75,2.43-1.46,4.76-2.14,6.99l-5.27-6.62l7.19-22.96l-7.54-0.9l-11.41,9.08l-4.41-5.54l32.5-25.84L383.22,128.79z"/>

<path class="st1" d="M416.77,185.28l-33,29.38l-2.73-6.86l9.59-8.53l-5.43-13.66l-12.8,0.44l-2.75-6.91l44.24-1.12L416.77,185.28z

M406.72,185.01l-15.2,0.42l3.83,9.65L406.72,185.01z"/>

<path class="st1" d="M428.83,247.8l-6.03,0.56l-1.21-12.96l-35.31,3.29l-0.65-6.99l35.31-3.29l-1.21-12.96l6.03-0.56L428.83,247.8

z"/>

<path class="st1" d="M426.6,273.11l-16.72-3.28l-3.56,18.13l16.72,3.28l-1.36,6.95l-40.74-7.99l1.36-6.95l18.13,3.56l3.56-18.13

l-18.13-3.56l1.35-6.89l40.74,7.99L426.6,273.11z"/>

<path class="st1" d="M378.31,341.54c-2.8-1.55-5.16-3.34-7.08-5.36c-1.92-2.02-3.33-4.21-4.22-6.56c-0.9-2.35-1.23-4.82-1-7.41

c0.23-2.6,1.08-5.22,2.55-7.88c1.47-2.66,3.24-4.76,5.3-6.29s4.32-2.54,6.79-3.03c2.46-0.49,5.06-0.46,7.8,0.1

c2.73,0.55,5.5,1.6,8.3,3.15c2.8,1.55,5.16,3.34,7.08,5.36s3.33,4.21,4.22,6.56c0.89,2.35,1.25,4.81,1.06,7.38

c-0.19,2.57-1.02,5.18-2.49,7.84c-1.47,2.66-3.26,4.77-5.36,6.33c-2.1,1.56-4.38,2.58-6.84,3.07c-2.46,0.49-5.06,0.45-7.8-0.1

C383.88,344.15,381.11,343.09,378.31,341.54z M381.71,335.4c2.17,1.2,4.26,2,6.28,2.41c2.02,0.41,3.87,0.46,5.57,0.17

c1.7-0.3,3.22-0.92,4.56-1.86c1.35-0.95,2.43-2.15,3.24-3.62s1.26-3.02,1.34-4.64c0.08-1.63-0.21-3.23-0.87-4.8

c-0.66-1.58-1.7-3.11-3.11-4.6c-1.41-1.49-3.21-2.84-5.38-4.04c-2.17-1.2-4.25-2-6.25-2.4c-2-0.4-3.85-0.46-5.55-0.19

c-1.7,0.27-3.22,0.87-4.56,1.8c-1.34,0.93-2.41,2.13-3.23,3.6c-0.81,1.47-1.26,3.03-1.35,4.67c-0.09,1.64,0.2,3.27,0.87,4.87

c0.67,1.6,1.7,3.15,3.1,4.63C377.76,332.86,379.54,334.2,381.71,335.4z"/>

<path class="st1" d="M377.83,373.3l-33.33-9.67l20.48,21.76l-5.11,4.81l-28.46-30.23l5.77-5.43l33.41,9.67l-20.52-21.8l5.11-4.81

l28.46,30.23L377.83,373.3z"/>

</g>

</g>

<circle class="st1" cx="248.85" cy="249.55" r="123.4"/>

<g>

<g>

<g>

<path class="st3" d="M130.4,385.79c-10.3,0-24.39-8.78-27.84-12.64c-3.42-3.84-1.31-8.81-1.22-9.01l56.69-132.62

c0.09-0.23,2.02-4.67,5.33-12.23c0.83-1.91,1.45-3.33,1.54-3.53c15.21-35.37,49.05-58.23,86.21-58.23

c11.35,0,22.56,2.15,33.29,6.39c47.25,18.65,70.52,72.27,51.87,119.52c-6.92,17.54-18.83,32.32-34.45,42.75

c-15.26,10.19-32.99,15.58-51.27,15.58c-11.57,0-22.94-2.17-33.8-6.46c-18.58-7.33-33.88-20.1-44.37-36.97l-33.84,81.75

c-2.13,5.63-7.3,5.7-7.52,5.7C130.85,385.79,130.62,385.79,130.4,385.79z"/>

<g>

<path class="st4" d="M251.12,158.53c10.92,0,22.05,2.02,32.92,6.32c46.81,18.48,69.78,71.41,51.3,118.22

c-14.14,35.83-48.47,57.69-84.79,57.69c-11.13,0-22.45-2.05-33.43-6.39c-19.56-7.72-34.95-21.46-44.9-38.25l-34.59,83.58

c-1.9,5.02-6.4,5.08-6.6,5.08c0,0-0.01,0-0.01,0c-0.21,0.01-0.42,0.01-0.64,0.01c-9.82,0-23.79-8.6-27.09-12.3

c-3.04-3.4-1.05-7.95-1.05-7.95l56.7-132.63c0.16-0.43,6.57-15.08,6.87-15.76C181.09,180.66,215,158.53,251.12,158.53

M251.12,156.53c-37.56,0-71.77,23.09-87.13,58.83c-0.09,0.2-0.73,1.67-1.59,3.64c-3.73,8.53-5.05,11.57-5.28,12.13

l-56.7,132.62c-0.1,0.22-2.45,5.76,1.39,10.07c3.54,3.96,18,12.97,28.58,12.97c0.24,0,0.47,0,0.7-0.01

c2.31-0.04,6.51-1.41,8.4-6.34l33.09-79.95c10.56,16.25,25.63,28.57,43.81,35.74c10.97,4.33,22.47,6.53,34.17,6.53

c18.48,0,36.4-5.45,51.82-15.75c15.79-10.54,27.83-25.49,34.83-43.21c9.13-23.14,8.71-48.45-1.19-71.27

c-9.9-22.82-28.1-40.41-51.24-49.55C273.92,158.71,262.6,156.53,251.12,156.53L251.12,156.53z"/>

</g>

</g>

<path class="st1" d="M208.71,287.83C210.93,288.86,208.71,287.83,208.71,287.83l12.25,7.23c26.69,16.9,68.53,14.88,84.79-23.32

c15.14-35.57-5.29-64.33-33.89-75.62c-28.6-11.29-61.78,4.44-73.07,33.04c-6,15.19-6.7,28.2-2.14,39.52c0,0,0.15,2.51,0.21,2.88

c0.06,0.36,0,0,0,0"/>

</g>

<path class="st5" d="M193.37,271.1"/>

<g>

<path class="st6" d="M206.25,328.52c-14.7-8.03-25.92-19.41-34.05-33.13c0,0-18.95-27.74-1.41-48.95c0,0,11.85-15.33,33.98-9.59

c20.31,5.27,30.44,21.17,34.49,34.13c2.61,8.35,6.13,28.46,2.04,57.33c-3.99,28.17-5.13,63.85,6.66,83.6

c8.34,13.97,19.82,33.28,62.15,37.5c0,0,31.34,3.57,45.25-13.93c0,0,3.15-5.41,10.01-3.42c7.67,2.22,6.85,12.72,6.85,12.72

s-0.42,67.67-69.21,64.51c-89.33-4.1-113.1-88.91-101.41-152.01c10.15-54.76,7.44-74.23,5.27-80.83

c-2.26-6.85-4.98-9.43-7.26-9.69c0,0-2.9-0.4-2.82,4.13c0,0,0.08,7.46,11.91,16.93"/>

</g>

<path class="st1" d="M205.07,333.97c1.88-12.68,3.85-39.11,1.55-50.57c-0.34-1.7-0.05-6.81-0.45-8.17c0,0,6.71,9.26-0.84,59.61

L205.07,333.97z"/>

<path class="st1" d="M232.72,254.95c-5.86-8.11-14.58-16.15-27.1-19.4c-22.58-5.86-34.68,9.79-34.68,9.79

c-17.9,21.64,1.19,51,1.19,51c8.3,14,15.06,25.17,30.06,33.36l-0.36,0.45c-14.7-8.03-20.03-17.66-28.16-31.38

c0,0-19.24-30.91-1.7-52.12c0,0,12.42-15.49,33.98-9.59c10.9,2.98,21.25,11.24,26.93,18.12L232.72,254.95z"/>

<path class="st1" d="M196.86,271.55c0,0,0.68,4.98,5.93,10.73c0,0,4.31,4.43,5.91,5.54"/>

</g>

<polygon class="st1" points="75.99,267.93 84.94,264.99 84.97,255.57 90.53,263.18 99.5,260.29 93.99,267.93 99.5,275.57

90.53,272.69 84.97,280.3 84.94,270.87 "/>

<polygon class="st1" points="301.14,392.75 310.53,393.48 314.18,384.79 316.39,393.95 325.78,394.74 317.75,399.67 319.91,408.85

312.74,402.73 304.67,407.62 308.27,398.91 "/>

</svg>